<mxfile host="Electron" modified="2023-05-27T15:37:30.474Z" agent="Mozilla/5.0 (Macintosh; Intel Mac OS X 10_15_7) AppleWebKit/537.36 (KHTML, like Gecko) draw.io/21.2.1 Chrome/112.0.5615.87 Electron/24.1.2 Safari/537.36" etag="eTx8mTyTZNg4bomsFdq1" version="21.2.1" type="device">
  <diagram name="Page-1" id="H1nZVYqxkzLZFgEqRADx">
    <mxGraphModel dx="3045" dy="5350" grid="1" gridSize="10" guides="1" tooltips="1" connect="1" arrows="1" fold="1" page="1" pageScale="1" pageWidth="850" pageHeight="1100" math="0" shadow="0">
      <root>
        <mxCell id="0" />
        <mxCell id="1" parent="0" />
        <mxCell id="AsBp8XiL8Dx4Y6rQVwFH-6023" value="R, W: 125, H: 118, ORDER: 17, GC: {47, 30, 20, 28, 12, 8, 17, 11, 2, 36, 14, 6, 5, 1, 18, 71, 54} " style="text;html=1;strokeColor=none;fillColor=none;align=center;verticalAlign=middle;whiteSpace=wrap;rounded=0;flipV=1;" parent="1" vertex="1">
          <mxGeometry x="1350" width="1250" height="30" as="geometry" />
        </mxCell>
        <mxCell id="AsBp8XiL8Dx4Y6rQVwFH-11029" value="R, W: 125, H: 110, ORDER: 19, GC: {36, 48, 23, 13, 41, 12, 29, 4, 10, 3, 11, 7, 28, 5, 17, 6, 40, 51, 34} " style="text;html=1;strokeColor=none;fillColor=none;align=center;verticalAlign=middle;whiteSpace=wrap;rounded=0;flipV=1;" parent="1" vertex="1">
          <mxGeometry x="1345" y="1300" width="1250" height="30" as="geometry" />
        </mxCell>
        <mxCell id="AsBp8XiL8Dx4Y6rQVwFH-16598" value="R, W: 125, H: 92, ORDER: 20, GC: {30, 34, 17, 9, 4, 33, 28, 5, 23, 20, 18, 6, 8, 1, 13, 7, 19, 41, 45, 39} " style="text;html=1;strokeColor=none;fillColor=none;align=center;verticalAlign=middle;whiteSpace=wrap;rounded=0;flipV=1;" parent="1" vertex="1">
          <mxGeometry x="1345" y="2500" width="1250" height="30" as="geometry" />
        </mxCell>
        <mxCell id="AsBp8XiL8Dx4Y6rQVwFH-44025" value="R, W: 125, H: 118, ORDER: 23, GC: {50, 32, 20, 23, 17, 3, 10, 16, 4, 6, 18, 14, 8, 13, 1, 7, 15, 22, 2, 11, 9, 68, 57} " style="text;html=1;strokeColor=none;fillColor=none;align=center;verticalAlign=middle;whiteSpace=wrap;rounded=0;flipV=1;" parent="1" vertex="1">
          <mxGeometry x="1345" y="3535" width="1250" height="30" as="geometry" />
        </mxCell>
        <mxCell id="GIRfgMjO5W-XkjEok6Te-1" value="" style="group;flipV=1;" vertex="1" connectable="0" parent="1">
          <mxGeometry x="1350" y="50" width="1250" height="1180" as="geometry" />
        </mxCell>
        <mxCell id="761dnnyQ54j-Cl0NHfQN-6024" value="47" style="rounded=0;whiteSpace=wrap;html=1;" parent="GIRfgMjO5W-XkjEok6Te-1" vertex="1">
          <mxGeometry y="710" width="470" height="470" as="geometry" />
        </mxCell>
        <mxCell id="761dnnyQ54j-Cl0NHfQN-6025" value="30" style="rounded=0;whiteSpace=wrap;html=1;" parent="GIRfgMjO5W-XkjEok6Te-1" vertex="1">
          <mxGeometry x="470" y="880" width="300" height="300" as="geometry" />
        </mxCell>
        <mxCell id="761dnnyQ54j-Cl0NHfQN-6026" value="20" style="rounded=0;whiteSpace=wrap;html=1;" parent="GIRfgMjO5W-XkjEok6Te-1" vertex="1">
          <mxGeometry x="770" y="980" width="200" height="200" as="geometry" />
        </mxCell>
        <mxCell id="761dnnyQ54j-Cl0NHfQN-6027" value="28" style="rounded=0;whiteSpace=wrap;html=1;" parent="GIRfgMjO5W-XkjEok6Te-1" vertex="1">
          <mxGeometry x="970" y="900" width="280" height="280" as="geometry" />
        </mxCell>
        <mxCell id="761dnnyQ54j-Cl0NHfQN-6028" value="12" style="rounded=0;whiteSpace=wrap;html=1;" parent="GIRfgMjO5W-XkjEok6Te-1" vertex="1">
          <mxGeometry x="770" y="860" width="120" height="120" as="geometry" />
        </mxCell>
        <mxCell id="761dnnyQ54j-Cl0NHfQN-6029" value="8" style="rounded=0;whiteSpace=wrap;html=1;" parent="GIRfgMjO5W-XkjEok6Te-1" vertex="1">
          <mxGeometry x="890" y="900" width="80" height="80" as="geometry" />
        </mxCell>
        <mxCell id="761dnnyQ54j-Cl0NHfQN-6030" value="17" style="rounded=0;whiteSpace=wrap;html=1;" parent="GIRfgMjO5W-XkjEok6Te-1" vertex="1">
          <mxGeometry x="470" y="710" width="170" height="170" as="geometry" />
        </mxCell>
        <mxCell id="761dnnyQ54j-Cl0NHfQN-6031" value="11" style="rounded=0;whiteSpace=wrap;html=1;" parent="GIRfgMjO5W-XkjEok6Te-1" vertex="1">
          <mxGeometry x="640" y="770" width="110" height="110" as="geometry" />
        </mxCell>
        <mxCell id="761dnnyQ54j-Cl0NHfQN-6032" value="2" style="rounded=0;whiteSpace=wrap;html=1;" parent="GIRfgMjO5W-XkjEok6Te-1" vertex="1">
          <mxGeometry x="750" y="860" width="20" height="20" as="geometry" />
        </mxCell>
        <mxCell id="761dnnyQ54j-Cl0NHfQN-6033" value="36" style="rounded=0;whiteSpace=wrap;html=1;" parent="GIRfgMjO5W-XkjEok6Te-1" vertex="1">
          <mxGeometry x="890" y="540" width="360" height="360" as="geometry" />
        </mxCell>
        <mxCell id="761dnnyQ54j-Cl0NHfQN-6034" value="14" style="rounded=0;whiteSpace=wrap;html=1;" parent="GIRfgMjO5W-XkjEok6Te-1" vertex="1">
          <mxGeometry x="750" y="720" width="140" height="140" as="geometry" />
        </mxCell>
        <mxCell id="761dnnyQ54j-Cl0NHfQN-6035" value="6" style="rounded=0;whiteSpace=wrap;html=1;" parent="GIRfgMjO5W-XkjEok6Te-1" vertex="1">
          <mxGeometry x="640" y="710" width="60" height="60" as="geometry" />
        </mxCell>
        <mxCell id="761dnnyQ54j-Cl0NHfQN-6036" value="5" style="rounded=0;whiteSpace=wrap;html=1;" parent="GIRfgMjO5W-XkjEok6Te-1" vertex="1">
          <mxGeometry x="700" y="720" width="50" height="50" as="geometry" />
        </mxCell>
        <mxCell id="761dnnyQ54j-Cl0NHfQN-6037" value="1" style="rounded=0;whiteSpace=wrap;html=1;" parent="GIRfgMjO5W-XkjEok6Te-1" vertex="1">
          <mxGeometry x="700" y="710" width="10" height="10" as="geometry" />
        </mxCell>
        <mxCell id="761dnnyQ54j-Cl0NHfQN-6038" value="18" style="rounded=0;whiteSpace=wrap;html=1;" parent="GIRfgMjO5W-XkjEok6Te-1" vertex="1">
          <mxGeometry x="710" y="540" width="180" height="180" as="geometry" />
        </mxCell>
        <mxCell id="761dnnyQ54j-Cl0NHfQN-6039" value="71" style="rounded=0;whiteSpace=wrap;html=1;" parent="GIRfgMjO5W-XkjEok6Te-1" vertex="1">
          <mxGeometry width="710" height="710" as="geometry" />
        </mxCell>
        <mxCell id="761dnnyQ54j-Cl0NHfQN-6040" value="54" style="rounded=0;whiteSpace=wrap;html=1;" parent="GIRfgMjO5W-XkjEok6Te-1" vertex="1">
          <mxGeometry x="710" width="540" height="540" as="geometry" />
        </mxCell>
        <mxCell id="GIRfgMjO5W-XkjEok6Te-2" value="" style="group;flipV=1;" vertex="1" connectable="0" parent="1">
          <mxGeometry x="1345" y="1350" width="1250" height="1100" as="geometry" />
        </mxCell>
        <mxCell id="761dnnyQ54j-Cl0NHfQN-11030" value="36" style="rounded=0;whiteSpace=wrap;html=1;" parent="GIRfgMjO5W-XkjEok6Te-2" vertex="1">
          <mxGeometry y="740" width="360" height="360" as="geometry" />
        </mxCell>
        <mxCell id="761dnnyQ54j-Cl0NHfQN-11031" value="48" style="rounded=0;whiteSpace=wrap;html=1;" parent="GIRfgMjO5W-XkjEok6Te-2" vertex="1">
          <mxGeometry x="360" y="620" width="480" height="480" as="geometry" />
        </mxCell>
        <mxCell id="761dnnyQ54j-Cl0NHfQN-11032" value="23" style="rounded=0;whiteSpace=wrap;html=1;" parent="GIRfgMjO5W-XkjEok6Te-2" vertex="1">
          <mxGeometry y="510" width="230" height="230" as="geometry" />
        </mxCell>
        <mxCell id="761dnnyQ54j-Cl0NHfQN-11033" value="13" style="rounded=0;whiteSpace=wrap;html=1;" parent="GIRfgMjO5W-XkjEok6Te-2" vertex="1">
          <mxGeometry x="230" y="610" width="130" height="130" as="geometry" />
        </mxCell>
        <mxCell id="761dnnyQ54j-Cl0NHfQN-11034" value="41" style="rounded=0;whiteSpace=wrap;html=1;" parent="GIRfgMjO5W-XkjEok6Te-2" vertex="1">
          <mxGeometry x="840" y="690" width="410" height="410" as="geometry" />
        </mxCell>
        <mxCell id="761dnnyQ54j-Cl0NHfQN-11035" value="12" style="rounded=0;whiteSpace=wrap;html=1;" parent="GIRfgMjO5W-XkjEok6Te-2" vertex="1">
          <mxGeometry x="840" y="570" width="120" height="120" as="geometry" />
        </mxCell>
        <mxCell id="761dnnyQ54j-Cl0NHfQN-11036" value="29" style="rounded=0;whiteSpace=wrap;html=1;" parent="GIRfgMjO5W-XkjEok6Te-2" vertex="1">
          <mxGeometry x="960" y="400" width="290" height="290" as="geometry" />
        </mxCell>
        <mxCell id="761dnnyQ54j-Cl0NHfQN-11037" value="4" style="rounded=0;whiteSpace=wrap;html=1;" parent="GIRfgMjO5W-XkjEok6Te-2" vertex="1">
          <mxGeometry x="360" y="580" width="40" height="40" as="geometry" />
        </mxCell>
        <mxCell id="761dnnyQ54j-Cl0NHfQN-11038" value="10" style="rounded=0;whiteSpace=wrap;html=1;" parent="GIRfgMjO5W-XkjEok6Te-2" vertex="1">
          <mxGeometry x="230" y="510" width="100" height="100" as="geometry" />
        </mxCell>
        <mxCell id="761dnnyQ54j-Cl0NHfQN-11039" value="3" style="rounded=0;whiteSpace=wrap;html=1;" parent="GIRfgMjO5W-XkjEok6Te-2" vertex="1">
          <mxGeometry x="330" y="580" width="30" height="30" as="geometry" />
        </mxCell>
        <mxCell id="761dnnyQ54j-Cl0NHfQN-11040" value="11" style="rounded=0;whiteSpace=wrap;html=1;" parent="GIRfgMjO5W-XkjEok6Te-2" vertex="1">
          <mxGeometry x="400" y="510" width="110" height="110" as="geometry" />
        </mxCell>
        <mxCell id="761dnnyQ54j-Cl0NHfQN-11041" value="7" style="rounded=0;whiteSpace=wrap;html=1;" parent="GIRfgMjO5W-XkjEok6Te-2" vertex="1">
          <mxGeometry x="330" y="510" width="70" height="70" as="geometry" />
        </mxCell>
        <mxCell id="761dnnyQ54j-Cl0NHfQN-11042" value="28" style="rounded=0;whiteSpace=wrap;html=1;" parent="GIRfgMjO5W-XkjEok6Te-2" vertex="1">
          <mxGeometry x="510" y="340" width="280" height="280" as="geometry" />
        </mxCell>
        <mxCell id="761dnnyQ54j-Cl0NHfQN-11043" value="5" style="rounded=0;whiteSpace=wrap;html=1;" parent="GIRfgMjO5W-XkjEok6Te-2" vertex="1">
          <mxGeometry x="790" y="570" width="50" height="50" as="geometry" />
        </mxCell>
        <mxCell id="761dnnyQ54j-Cl0NHfQN-11044" value="17" style="rounded=0;whiteSpace=wrap;html=1;" parent="GIRfgMjO5W-XkjEok6Te-2" vertex="1">
          <mxGeometry x="790" y="400" width="170" height="170" as="geometry" />
        </mxCell>
        <mxCell id="761dnnyQ54j-Cl0NHfQN-11045" value="6" style="rounded=0;whiteSpace=wrap;html=1;" parent="GIRfgMjO5W-XkjEok6Te-2" vertex="1">
          <mxGeometry x="790" y="340" width="60" height="60" as="geometry" />
        </mxCell>
        <mxCell id="761dnnyQ54j-Cl0NHfQN-11046" value="40" style="rounded=0;whiteSpace=wrap;html=1;" parent="GIRfgMjO5W-XkjEok6Te-2" vertex="1">
          <mxGeometry x="850" width="400" height="400" as="geometry" />
        </mxCell>
        <mxCell id="761dnnyQ54j-Cl0NHfQN-11047" value="51" style="rounded=0;whiteSpace=wrap;html=1;" parent="GIRfgMjO5W-XkjEok6Te-2" vertex="1">
          <mxGeometry width="510" height="510" as="geometry" />
        </mxCell>
        <mxCell id="761dnnyQ54j-Cl0NHfQN-11048" value="34" style="rounded=0;whiteSpace=wrap;html=1;" parent="GIRfgMjO5W-XkjEok6Te-2" vertex="1">
          <mxGeometry x="510" width="340" height="340" as="geometry" />
        </mxCell>
        <mxCell id="GIRfgMjO5W-XkjEok6Te-3" value="" style="group;flipV=1;" vertex="1" connectable="0" parent="1">
          <mxGeometry x="1345" y="2550" width="1250" height="920" as="geometry" />
        </mxCell>
        <mxCell id="761dnnyQ54j-Cl0NHfQN-16599" value="30" style="rounded=0;whiteSpace=wrap;html=1;" parent="GIRfgMjO5W-XkjEok6Te-3" vertex="1">
          <mxGeometry y="620" width="300" height="300" as="geometry" />
        </mxCell>
        <mxCell id="761dnnyQ54j-Cl0NHfQN-16600" value="34" style="rounded=0;whiteSpace=wrap;html=1;" parent="GIRfgMjO5W-XkjEok6Te-3" vertex="1">
          <mxGeometry x="300" y="580" width="340" height="340" as="geometry" />
        </mxCell>
        <mxCell id="761dnnyQ54j-Cl0NHfQN-16601" value="17" style="rounded=0;whiteSpace=wrap;html=1;" parent="GIRfgMjO5W-XkjEok6Te-3" vertex="1">
          <mxGeometry y="450" width="170" height="170" as="geometry" />
        </mxCell>
        <mxCell id="761dnnyQ54j-Cl0NHfQN-16602" value="9" style="rounded=0;whiteSpace=wrap;html=1;" parent="GIRfgMjO5W-XkjEok6Te-3" vertex="1">
          <mxGeometry x="170" y="530" width="90" height="90" as="geometry" />
        </mxCell>
        <mxCell id="761dnnyQ54j-Cl0NHfQN-16603" value="4" style="rounded=0;whiteSpace=wrap;html=1;" parent="GIRfgMjO5W-XkjEok6Te-3" vertex="1">
          <mxGeometry x="260" y="580" width="40" height="40" as="geometry" />
        </mxCell>
        <mxCell id="761dnnyQ54j-Cl0NHfQN-16604" value="33" style="rounded=0;whiteSpace=wrap;html=1;flipV=1;" parent="GIRfgMjO5W-XkjEok6Te-3" vertex="1">
          <mxGeometry x="640" y="590" width="330" height="330" as="geometry" />
        </mxCell>
        <mxCell id="761dnnyQ54j-Cl0NHfQN-16605" value="28" style="rounded=0;whiteSpace=wrap;html=1;" parent="GIRfgMjO5W-XkjEok6Te-3" vertex="1">
          <mxGeometry x="970" y="640" width="280" height="280" as="geometry" />
        </mxCell>
        <mxCell id="761dnnyQ54j-Cl0NHfQN-16606" value="5" style="rounded=0;whiteSpace=wrap;html=1;flipV=1;" parent="GIRfgMjO5W-XkjEok6Te-3" vertex="1">
          <mxGeometry x="970" y="590" width="50" height="50" as="geometry" />
        </mxCell>
        <mxCell id="761dnnyQ54j-Cl0NHfQN-16607" value="23" style="rounded=0;whiteSpace=wrap;html=1;" parent="GIRfgMjO5W-XkjEok6Te-3" vertex="1">
          <mxGeometry x="1020" y="410" width="230" height="230" as="geometry" />
        </mxCell>
        <mxCell id="761dnnyQ54j-Cl0NHfQN-16608" value="20" style="rounded=0;whiteSpace=wrap;html=1;flipV=1;" parent="GIRfgMjO5W-XkjEok6Te-3" vertex="1">
          <mxGeometry x="640" y="390" width="200" height="200" as="geometry" />
        </mxCell>
        <mxCell id="761dnnyQ54j-Cl0NHfQN-16609" value="18" style="rounded=0;whiteSpace=wrap;html=1;flipV=1;" parent="GIRfgMjO5W-XkjEok6Te-3" vertex="1">
          <mxGeometry x="840" y="410" width="180" height="180" as="geometry" />
        </mxCell>
        <mxCell id="761dnnyQ54j-Cl0NHfQN-16610" value="6" style="rounded=0;whiteSpace=wrap;html=1;" parent="GIRfgMjO5W-XkjEok6Te-3" vertex="1">
          <mxGeometry x="260" y="520" width="60" height="60" as="geometry" />
        </mxCell>
        <mxCell id="761dnnyQ54j-Cl0NHfQN-16611" value="8" style="rounded=0;whiteSpace=wrap;html=1;" parent="GIRfgMjO5W-XkjEok6Te-3" vertex="1">
          <mxGeometry x="170" y="450" width="80" height="80" as="geometry" />
        </mxCell>
        <mxCell id="761dnnyQ54j-Cl0NHfQN-16612" value="1" style="rounded=0;whiteSpace=wrap;html=1;" parent="GIRfgMjO5W-XkjEok6Te-3" vertex="1">
          <mxGeometry x="250" y="520" width="10" height="10" as="geometry" />
        </mxCell>
        <mxCell id="761dnnyQ54j-Cl0NHfQN-16613" value="13" style="rounded=0;whiteSpace=wrap;html=1;" parent="GIRfgMjO5W-XkjEok6Te-3" vertex="1">
          <mxGeometry x="320" y="450" width="130" height="130" as="geometry" />
        </mxCell>
        <mxCell id="761dnnyQ54j-Cl0NHfQN-16614" value="7" style="rounded=0;whiteSpace=wrap;html=1;" parent="GIRfgMjO5W-XkjEok6Te-3" vertex="1">
          <mxGeometry x="250" y="450" width="70" height="70" as="geometry" />
        </mxCell>
        <mxCell id="761dnnyQ54j-Cl0NHfQN-16615" value="19" style="rounded=0;whiteSpace=wrap;html=1;flipV=1;" parent="GIRfgMjO5W-XkjEok6Te-3" vertex="1">
          <mxGeometry x="450" y="390" width="190" height="190" as="geometry" />
        </mxCell>
        <mxCell id="761dnnyQ54j-Cl0NHfQN-16616" value="41" style="rounded=0;whiteSpace=wrap;html=1;" parent="GIRfgMjO5W-XkjEok6Te-3" vertex="1">
          <mxGeometry x="840" width="410" height="410" as="geometry" />
        </mxCell>
        <mxCell id="761dnnyQ54j-Cl0NHfQN-16617" value="45" style="rounded=0;whiteSpace=wrap;html=1;" parent="GIRfgMjO5W-XkjEok6Te-3" vertex="1">
          <mxGeometry width="450" height="450" as="geometry" />
        </mxCell>
        <mxCell id="761dnnyQ54j-Cl0NHfQN-16618" value="39" style="rounded=0;whiteSpace=wrap;html=1;flipV=1;" parent="GIRfgMjO5W-XkjEok6Te-3" vertex="1">
          <mxGeometry x="450" width="390" height="390" as="geometry" />
        </mxCell>
        <mxCell id="GIRfgMjO5W-XkjEok6Te-4" value="" style="group;flipV=1;" vertex="1" connectable="0" parent="1">
          <mxGeometry x="1345" y="3585" width="1250" height="1180" as="geometry" />
        </mxCell>
        <mxCell id="761dnnyQ54j-Cl0NHfQN-44026" value="50" style="rounded=0;whiteSpace=wrap;html=1;" parent="GIRfgMjO5W-XkjEok6Te-4" vertex="1">
          <mxGeometry y="680" width="500" height="500" as="geometry" />
        </mxCell>
        <mxCell id="761dnnyQ54j-Cl0NHfQN-44027" value="32" style="rounded=0;whiteSpace=wrap;html=1;flipV=1;" parent="GIRfgMjO5W-XkjEok6Te-4" vertex="1">
          <mxGeometry x="500" y="860" width="320" height="320" as="geometry" />
        </mxCell>
        <mxCell id="761dnnyQ54j-Cl0NHfQN-44028" value="20" style="rounded=0;whiteSpace=wrap;html=1;flipV=1;" parent="GIRfgMjO5W-XkjEok6Te-4" vertex="1">
          <mxGeometry x="820" y="980" width="200" height="200" as="geometry" />
        </mxCell>
        <mxCell id="761dnnyQ54j-Cl0NHfQN-44029" value="23" style="rounded=0;whiteSpace=wrap;html=1;" parent="GIRfgMjO5W-XkjEok6Te-4" vertex="1">
          <mxGeometry x="1020" y="950" width="230" height="230" as="geometry" />
        </mxCell>
        <mxCell id="761dnnyQ54j-Cl0NHfQN-44030" value="17" style="rounded=0;whiteSpace=wrap;html=1;flipV=1;" parent="GIRfgMjO5W-XkjEok6Te-4" vertex="1">
          <mxGeometry x="820" y="810" width="170" height="170" as="geometry" />
        </mxCell>
        <mxCell id="761dnnyQ54j-Cl0NHfQN-44031" value="3" style="rounded=0;whiteSpace=wrap;html=1;flipV=1;" parent="GIRfgMjO5W-XkjEok6Te-4" vertex="1">
          <mxGeometry x="990" y="950" width="30" height="30" as="geometry" />
        </mxCell>
        <mxCell id="761dnnyQ54j-Cl0NHfQN-44032" value="10" style="rounded=0;whiteSpace=wrap;html=1;flipV=1;" parent="GIRfgMjO5W-XkjEok6Te-4" vertex="1">
          <mxGeometry x="990" y="850" width="100" height="100" as="geometry" />
        </mxCell>
        <mxCell id="761dnnyQ54j-Cl0NHfQN-44033" value="16" style="rounded=0;whiteSpace=wrap;html=1;" parent="GIRfgMjO5W-XkjEok6Te-4" vertex="1">
          <mxGeometry x="1090" y="790" width="160" height="160" as="geometry" />
        </mxCell>
        <mxCell id="761dnnyQ54j-Cl0NHfQN-44034" value="4" style="rounded=0;whiteSpace=wrap;html=1;flipV=1;" parent="GIRfgMjO5W-XkjEok6Te-4" vertex="1">
          <mxGeometry x="990" y="810" width="40" height="40" as="geometry" />
        </mxCell>
        <mxCell id="761dnnyQ54j-Cl0NHfQN-44035" value="6" style="rounded=0;whiteSpace=wrap;html=1;flipV=1;" parent="GIRfgMjO5W-XkjEok6Te-4" vertex="1">
          <mxGeometry x="1030" y="790" width="60" height="60" as="geometry" />
        </mxCell>
        <mxCell id="761dnnyQ54j-Cl0NHfQN-44036" value="18" style="rounded=0;whiteSpace=wrap;html=1;flipV=1;" parent="GIRfgMjO5W-XkjEok6Te-4" vertex="1">
          <mxGeometry x="500" y="680" width="180" height="180" as="geometry" />
        </mxCell>
        <mxCell id="761dnnyQ54j-Cl0NHfQN-44037" value="14" style="rounded=0;whiteSpace=wrap;html=1;flipV=1;" parent="GIRfgMjO5W-XkjEok6Te-4" vertex="1">
          <mxGeometry x="680" y="720" width="140" height="140" as="geometry" />
        </mxCell>
        <mxCell id="761dnnyQ54j-Cl0NHfQN-44038" value="8" style="rounded=0;whiteSpace=wrap;html=1;flipV=1;" parent="GIRfgMjO5W-XkjEok6Te-4" vertex="1">
          <mxGeometry x="820" y="730" width="80" height="80" as="geometry" />
        </mxCell>
        <mxCell id="761dnnyQ54j-Cl0NHfQN-44039" value="13" style="rounded=0;whiteSpace=wrap;html=1;flipV=1;" parent="GIRfgMjO5W-XkjEok6Te-4" vertex="1">
          <mxGeometry x="900" y="680" width="130" height="130" as="geometry" />
        </mxCell>
        <mxCell id="761dnnyQ54j-Cl0NHfQN-44040" value="1" style="rounded=0;whiteSpace=wrap;html=1;flipV=1;" parent="GIRfgMjO5W-XkjEok6Te-4" vertex="1">
          <mxGeometry x="820" y="720" width="10" height="10" as="geometry" />
        </mxCell>
        <mxCell id="761dnnyQ54j-Cl0NHfQN-44041" value="7" style="rounded=0;whiteSpace=wrap;html=1;flipV=1;" parent="GIRfgMjO5W-XkjEok6Te-4" vertex="1">
          <mxGeometry x="830" y="660" width="70" height="70" as="geometry" />
        </mxCell>
        <mxCell id="761dnnyQ54j-Cl0NHfQN-44042" value="15" style="rounded=0;whiteSpace=wrap;html=1;flipV=1;" parent="GIRfgMjO5W-XkjEok6Te-4" vertex="1">
          <mxGeometry x="680" y="570" width="150" height="150" as="geometry" />
        </mxCell>
        <mxCell id="761dnnyQ54j-Cl0NHfQN-44043" value="22" style="rounded=0;whiteSpace=wrap;html=1;" parent="GIRfgMjO5W-XkjEok6Te-4" vertex="1">
          <mxGeometry x="1030" y="570" width="220" height="220" as="geometry" />
        </mxCell>
        <mxCell id="761dnnyQ54j-Cl0NHfQN-44044" value="2" style="rounded=0;whiteSpace=wrap;html=1;flipV=1;" parent="GIRfgMjO5W-XkjEok6Te-4" vertex="1">
          <mxGeometry x="900" y="660" width="20" height="20" as="geometry" />
        </mxCell>
        <mxCell id="761dnnyQ54j-Cl0NHfQN-44045" value="11" style="rounded=0;whiteSpace=wrap;html=1;flipV=1;" parent="GIRfgMjO5W-XkjEok6Te-4" vertex="1">
          <mxGeometry x="920" y="570" width="110" height="110" as="geometry" />
        </mxCell>
        <mxCell id="761dnnyQ54j-Cl0NHfQN-44046" value="9" style="rounded=0;whiteSpace=wrap;html=1;flipV=1;" parent="GIRfgMjO5W-XkjEok6Te-4" vertex="1">
          <mxGeometry x="830" y="570" width="90" height="90" as="geometry" />
        </mxCell>
        <mxCell id="761dnnyQ54j-Cl0NHfQN-44047" value="68" style="rounded=0;whiteSpace=wrap;html=1;" parent="GIRfgMjO5W-XkjEok6Te-4" vertex="1">
          <mxGeometry width="680" height="680" as="geometry" />
        </mxCell>
        <mxCell id="761dnnyQ54j-Cl0NHfQN-44048" value="57" style="rounded=0;whiteSpace=wrap;html=1;" parent="GIRfgMjO5W-XkjEok6Te-4" vertex="1">
          <mxGeometry x="680" width="570" height="570" as="geometry" />
        </mxCell>
      </root>
    </mxGraphModel>
  </diagram>
</mxfile>
